<?xml version="1.0" encoding="utf-8"?>
<!-- Generator: Adobe Illustrator 26.0.1, SVG Export Plug-In . SVG Version: 6.00 Build 0)  -->
<svg version="1.1" id="Capa_1" xmlns="http://www.w3.org/2000/svg" xmlns:xlink="http://www.w3.org/1999/xlink" x="0px" y="0px"
	 viewBox="0 0 512 512" style="enable-background:new 0 0 512 512;" xml:space="preserve">
<style type="text/css">
	.st0{fill:#00005B;}
	.st1{fill:#9999FF;}
</style>
<g id="vlpa">
	<g id="vlpb">
		<g id="vlpc">
			<g id="vlpd">
				<path class="st0" d="M91.5,6.9h330c50,0,90.5,40.5,90.5,90.5v317.2c0,50-40.5,90.5-90.5,90.5h-330c-50,0-90.5-40.5-90.5-90.5
					V97.4C1,47.3,41.5,6.9,91.5,6.9z"/>
			</g>
		</g>
	</g>
	<g id="vlpe">
		<g id="vlpf">
			<path class="st1" d="M206.3,305H127l-16.2,50.2c-0.4,1.9-2.1,3.2-4,3h-40c-2.3,0-3-1.3-2.3-3.8L133,157.8c0.6-2.1,1.3-4,2.1-6.6
				c0.9-4.5,1.3-9.2,1.3-13.8c-0.2-1.1,0.6-2.1,1.7-2.3h0.6h54.5c1.5,0,2.6,0.6,2.8,1.7l77.7,217.2c0.6,2.3,0,3.4-2.1,3.4h-44.5
				c-1.5,0.2-3-0.9-3.4-2.3l-17.5-51.1L206.3,305z M139.4,262.6h54.1c-1.3-4.5-3-9.8-4.9-15.3c-1.9-5.7-3.8-11.9-5.7-18.3
				c-2.1-6.6-4-13-6.2-19.6s-4-12.8-5.7-18.9c-1.7-6-3.2-11.5-4.7-16.6h-0.4c-1.9,9.2-4.3,18.3-7.2,27.5
				c-3.2,10.2-6.4,20.9-9.8,31.5C146,243.7,142.6,253.7,139.4,262.6z"/>
			<path class="st1" d="M399.2,285.8h-67.5c0.9,6.6,3,13.2,6.6,18.9c3.8,5.7,9.2,10.2,15.5,12.8c8.5,3.6,17.9,5.5,27.3,5.3
				c7.5-0.2,14.9-0.9,22.1-2.3c6.6-0.9,13-2.6,18.9-4.9c1.1-0.9,1.7-0.4,1.7,1.7v32.6c0,0.9-0.2,1.7-0.4,2.6
				c-0.4,0.6-0.9,1.1-1.5,1.5c-6.8,3-13.8,5.1-21.3,6.4c-10,1.9-20,2.8-30.2,2.6c-16.2,0-29.8-2.6-40.9-7.5
				c-10.4-4.5-19.6-11.5-26.8-20.2c-6.8-8.3-11.7-17.7-14.7-27.9c-3-10-4.5-20.4-4.5-31.1c0-11.5,1.7-22.8,5.3-33.9
				c3.4-10.6,8.7-20.4,16-29.2c7-8.5,15.8-15.3,25.8-20.2s21.9-6.6,35.6-6.6c11.3-0.2,22.6,1.9,33,6.6c8.7,3.8,16.4,9.6,22.4,17
				c5.5,7.2,10,15.3,12.8,24.3c2.8,8.5,4,17.2,4,26c0,5.1-0.2,9.6-0.4,13.6c-0.4,4-0.6,7-0.9,8.9c-0.2,1.5-1.5,2.8-3,2.8
				c-1.3,0-3.6,0.2-7,0.4c-3.4,0.4-7.5,0.6-12.3,0.6S404.7,285.8,399.2,285.8L399.2,285.8z M331.7,254.7h44.9c5.5,0,9.6,0,12.1-0.2
				c1.7-0.2,3.4-0.6,4.9-1.7v-2.1c0-2.8-0.4-5.3-1.3-7.9c-3.8-11.9-15.1-20-27.7-19.6c-11.7-0.6-22.8,5.5-28.3,16.2
				C333.8,244.3,332.3,249.4,331.7,254.7z"/>
		</g>
	</g>
</g>
</svg>
