<?xml version="1.0" encoding="utf-8"?>
<!-- Generator: Adobe Illustrator 26.0.1, SVG Export Plug-In . SVG Version: 6.00 Build 0)  -->
<svg version="1.1" id="Capa_1" xmlns="http://www.w3.org/2000/svg" xmlns:xlink="http://www.w3.org/1999/xlink" x="0px" y="0px"
	 viewBox="0 0 512 512" style="enable-background:new 0 0 512 512;" xml:space="preserve">
<style type="text/css">
	.st0{fill:#00005B;}
	.st1{fill:#9999FF;}
</style>
<g id="vlpa">
	<g id="vlpb">
		<g id="vlpc">
			<g id="vlpd">
				<path class="st0" d="M91.5,6.9h330c50,0,90.5,40.5,90.5,90.5v317.2c0,50-40.5,90.5-90.5,90.5h-330c-50,0-90.5-40.5-90.5-90.5
					V97.4C1,47.3,41.5,6.9,91.5,6.9z"/>
			</g>
		</g>
	</g>
	<g id="vlpe">
		<g id="vlpf">
			<path class="st1" d="M122.4,356.1V136.8c0-1.5,0.6-2.3,2.1-2.3c3.6,0,7,0,11.9-0.2c5.1-0.2,10.4-0.2,16.2-0.4
				c5.7-0.2,11.9-0.2,18.5-0.4c6.6-0.2,13-0.2,19.4-0.2c17.5,0,31.9,2.1,43.9,6.6c10.6,3.6,20.4,9.6,28.5,17.5
				c6.8,6.8,12.1,15.1,15.5,24.3c3.2,8.9,4.9,18.1,4.9,27.7c0,18.3-4.3,33.4-12.8,45.4s-20.4,20.9-34.3,26
				c-14.5,5.3-30.4,7.2-47.9,7.2c-5.1,0-8.5,0-10.6-0.2c-2.1-0.2-5.1-0.2-9.2-0.2v68.3c0.2,1.5-0.9,2.8-2.3,3h-0.9h-40.5
				c-1.7,0-2.6-0.9-2.6-2.8L122.4,356.1z M168.8,175.7v71.5c3,0.2,5.7,0.4,8.3,0.4h11.3c8.3,0,16.6-1.3,24.5-3.8
				c6.8-1.9,12.8-6,17.5-11.3c4.5-5.3,6.6-12.6,6.6-21.9c0.2-6.6-1.5-13.2-4.9-18.9c-3.6-5.5-8.7-9.8-14.9-12.1
				c-7.9-3.2-16.4-4.5-25.1-4.3c-5.5,0-10.4,0-14.5,0.2C173.2,175.3,170.3,175.5,168.8,175.7L168.8,175.7z"/>
			<path class="st1" d="M314,188.3h37.3c2.1,0,3.8,1.5,4.5,3.4c0.6,1.7,1.1,3.4,1.3,5.3c0.4,2.1,0.9,4.5,1.1,6.6
				c0.2,2.3,0.4,4.9,0.4,7.7c6.4-7.5,14.1-13.6,22.8-18.3c9.8-5.5,21.1-8.3,32.4-8.3c1.5-0.2,2.8,0.9,3,2.3v0.9v41.5
				c0,1.7-1.1,2.3-3.4,2.3c-7.7-0.2-15.5,0.4-23,2.1c-6.2,1.3-12.1,3.2-17.9,5.7c-4,1.9-7.9,4.5-10.9,7.9v108.6c0,2.1-0.9,3-2.8,3
				h-41.9c-1.7,0.2-3.2-0.9-3.4-2.6v-0.9v-118c0-5.1,0-10.4-0.2-16c-0.2-5.5-0.2-11.1-0.4-16.6c0-4.9-0.4-9.6-0.9-14.5
				c-0.2-1.1,0.4-2.1,1.5-2.3C313.3,188.1,313.8,188.1,314,188.3L314,188.3z"/>
		</g>
	</g>
</g>
</svg>
